<?xml version="1.0" encoding="UTF-8"?>
<svg id="Capa_2" data-name="Capa 2" xmlns="http://www.w3.org/2000/svg" viewBox="0 0 283.46 283.46">
  <polygon fill="currentColor" points="37.85 176.45 60.91 153.38 49.26 141.73 64.45 126.55 39.79 108.67 37.7 107.16 3.13 141.73 37.85 176.45 37.85 176.45"/>
  <polygon fill="currentColor" points="141.73 49.26 176.46 83.99 176.46 83.99 188.11 95.64 172.8 110.94 197.51 128.64 199.68 130.2 234.24 95.64 234.2 95.6 234.2 95.6 141.73 3.13 49.26 95.6 183.23 192.71 141.73 234.2 95.43 187.9 110.62 172.72 85.96 154.84 83.87 153.33 72.37 164.84 72.33 164.8 49.26 187.87 49.3 187.9 49.3 187.9 84.02 222.62 84.02 222.62 84.02 222.62 141.73 280.33 234.2 187.87 99.57 91.43 141.73 49.26"/>
  <polygon fill="currentColor" points="245.62 107.02 222.55 130.08 222.55 130.08 234.2 141.73 218.89 157.04 243.6 174.74 245.77 176.29 280.33 141.73 245.62 107.02"/>
</svg>